[Header]
FileType HTR
DataType HTRS
FileVersion 1
NumSegments 22
NumFrames 8
DataFrameRate 24
EulerRotationOrder ZYX
CalibrationUnits mm
RotationUnits Degrees
GlobalAxisofGravity Y
BoneLengthAxis Y
ScaleFactor 1.0
[SegmentNames&Hierarchy]
reference	GLOBAL
Hips	reference
Spine	Hips
Spine1	Spine
Neck	Spine1
Head	Neck
LeftShoulder	Spine1
LeftArm	LeftShoulder
LeftForeArm	LeftArm
LeftHand	LeftForeArm
RightShoulder	Spine1
RightArm	RightShoulder
RightForeArm	RightArm
RightHand	RightForeArm
LeftUpLeg	Hips
LeftLeg	LeftUpLeg
LeftFoot	LeftLeg
LeftToeBase	LeftFoot
RightUpLeg	Hips
RightLeg	RightUpLeg
RightFoot	RightLeg
RightToeBase	RightFoot
[BasePosition]
reference	0	0	0	0	0	0	1
Hips	0	0	0	0	0	0	1
Spine	0	0	0	0	-0	90	1
Spine1	0	0	0	0	0	0	1
Neck	0	0	0	-7.352430803	-7.352430803	90	1
Head	0	0	0	0	-0	90	1
LeftShoulder	0	0	0	0	0	0	1
LeftArm	0	0	0	0	0	0	1
LeftForeArm	0	0	0	0	0	0	1
LeftHand	0	0	0	0	0	0	1
RightShoulder	0	0	0	0	-0	180	1
RightArm	0	0	0	0	-0	180	1
RightForeArm	0	0	0	0	-0	180	1
RightHand	0	0	0	0	-0	180	1
LeftUpLeg	0	0	0	0	-0	-90	1
LeftLeg	0	0	0	0	-0	-90	1
LeftFoot	0	0	0	66.57150701	-66.57150701	-90	1
LeftToeBase	0	0	0	0	-90	0	1
RightUpLeg	0	0	0	0	-0	-90	1
RightLeg	0	0	0	0	-0	-90	1
RightFoot	0	0	0	66.57150701	-66.57150701	-90	1
RightToeBase	0	0	0	0	-90	0	1
[reference]
46	0	0	0	0	-0	0	1.0
47	0	0	0	0	-0	0	1.0
48	0	0	0	0	-0	0	1.0
49	0	0	0	0	-0	0	1.0
50	0	0	0	0	-0	0	1.0
51	0	0	0	0	-0	0	1.0
52	0	0	0	0	-0	0	1.0
53	0	0	0	0	-0	0	1.0
[Hips]
46	1.953628063	7.622034073	1.173387527	6.243134499	-99.26870728	18.05927086	1.0
47	2.123772383	7.177984715	1.182761431	0.1875855178	-100.9368668	30.16862679	1.0
48	2.10032177	7.111257553	1.191509366	18.26408958	-98.05639648	12.46111679	1.0
49	2.026077986	7.244549751	1.199057341	14.03926086	-99.19821167	14.12419128	1.0
50	1.93483901	7.576146126	1.2057091	16.07032013	-99.46189117	9.731464386	1.0
51	1.844450951	7.953377724	1.211825728	22.67017174	-99.1018219	1.429327011	1.0
52	1.75236845	8.332620621	1.217768669	24.3112793	-99.08869171	-1.853741646	1.0
53	1.646635413	8.635020256	1.223899722	25.47762871	-99.29469299	-4.564601898	1.0
[Spine]
46	0	0.7478299737	0	2.050730944	3.371659756	-87.42022705	1.0
47	0	0.7478299737	0	-4.10423851	1.996280193	-87.90007019	1.0
48	0	0.7478299737	0	-8.315813065	0.8500167131	-87.95490265	1.0
49	0	0.7478299737	0	-7.682962418	2.389426231	-87.26151276	1.0
50	0	0.7478299737	0	-6.829581738	1.941448331	-87.0665741	1.0
51	0	0.7478299737	0	-9.058820724	2.469034195	-87.80540466	1.0
52	0	0.7478299737	0	-8.884198189	2.04901433	-88.12679291	1.0
53	0	0.7478299737	0	-8.160820007	2.082107782	-88.57269287	1.0
[Spine1]
46	0	2.049309969	0	-19.77922058	1.530628204	1.516874671	1.0
47	0	2.049309969	0	-8.015192032	1.211105824	3.842069149	1.0
48	0	2.049309969	0	-4.202334404	0.2697187662	1.430645108	1.0
49	0	2.049309969	0	-4.707705975	0.7458375692	0.2826857567	1.0
50	0	2.049309969	0	-3.119279385	0.8213279843	-0.6957825422	1.0
51	0	2.049309969	0	-0.03373875096	0.715236783	-1.812503099	1.0
52	0	2.049309969	0	0.8298010826	0.6348035932	-1.579563856	1.0
53	0	2.049309969	0	0.6097404361	0.6660533547	-1.083107233	1.0
[Neck]
46	0	2.231709957	0	-2.48535347	10.35043621	-87.2443924	1.0
47	0	2.231709957	0	-19.98311615	12.61221027	-87.6492157	1.0
48	0	2.231709957	0	-18.66228485	12.4263401	-87.32009888	1.0
49	0	2.231709957	0	-13.01447201	11.43673515	-86.90333557	1.0
50	0	2.231709957	0	-10.82211208	11.12536144	-86.59977722	1.0
51	0	2.231709957	0	-8.442882538	10.94096947	-86.05897522	1.0
52	0	2.231709957	0	-6.726621628	10.653965	-86.63516235	1.0
53	0	2.231709957	0	-6.267431259	10.18222141	-87.33538818	1.0
[Head]
46	0	1.413589954	0.1823999882	-12.3080225	3.253562927	-94.38623047	1.0
47	0	1.413589954	0.1823999882	-6.682070732	5.541287899	-94.75657654	1.0
48	0	1.413589954	0.1823999882	-10.00006294	5.213752747	-96.12490082	1.0
49	0	1.413589954	0.1823999882	-11.63036346	4.17374754	-95.64781189	1.0
50	0	1.413589954	0.1823999882	-10.05170918	3.948557615	-94.64479065	1.0
51	0	1.413589954	0.1823999882	-12.00040054	3.732300043	-95.2342453	1.0
52	0	1.413589954	0.1823999882	-12.53156281	3.480875969	-96.20957184	1.0
53	0	1.413589954	0.1823999882	-11.88296318	3.055436134	-96.52882385	1.0
[LeftShoulder]
46	0.3649300039	1.825889945	-0.04271000251	-15.79647636	-8.340764999	-0.9106292129	1.0
47	0.3649300039	1.825889945	-0.04271000251	-15.55625629	-8.915049553	4.246284485	1.0
48	0.3649300039	1.825889945	-0.04271000251	-14.60657215	-9.341286659	3.995538712	1.0
49	0.3649300039	1.825889945	-0.04271000251	-13.1913805	-9.048303604	2.67132926	1.0
50	0.3649300039	1.825889945	-0.04271000251	-11.75385189	-8.211556435	1.964322805	1.0
51	0.3649300039	1.825889945	-0.04271000251	-11.89250946	-9.405015945	1.851614475	1.0
52	0.3649300039	1.825889945	-0.04271000251	-12.33682537	-11.32155991	1.264111042	1.0
53	0.3649300039	1.825889945	-0.04271000251	-12.7867918	-12.12888622	1.2344836	1.0
[LeftArm]
46	1.24003005	0	0	49.63954544	-6.779294491	-72.70233154	1.0
47	1.24003005	0	0	43.75182343	-9.990035057	-74.87030029	1.0
48	1.24003005	0	0	44.40459442	-6.257317543	-76.77502441	1.0
49	1.24003005	0	0	39.10961151	-2.346915245	-77.39253998	1.0
50	1.24003005	0	0	36.77892685	-2.640558481	-78.40942383	1.0
51	1.24003005	0	0	41.16810989	-3.056384802	-79.47066498	1.0
52	1.24003005	0	0	46.1736908	-2.772554159	-79.31278229	1.0
53	1.24003005	0	0	47.94099808	-0.2046863586	-79.90101624	1.0
[LeftForeArm]
46	2.847419977	0	0	-119.45047	-36.12313461	151.0155945	1.0
47	2.847419977	0	0	-116.5450439	-36.99882126	149.372467	1.0
48	2.847419977	0	0	-107.086731	-45.00440216	136.8027802	1.0
49	2.847419977	0	0	-93.05796814	-62.67334366	111.5657654	1.0
50	2.847419977	0	0	-38.61176682	-62.95373535	48.47195816	1.0
51	2.847419977	0	0	-18.94117165	-39.44673538	21.39166832	1.0
52	2.847419977	0	0	-11.97882271	-19.63404655	6.937688828	1.0
53	2.847419977	0	0	-13.12895107	-8.889969826	-1.882637978	1.0
[LeftHand]
46	2.258270025	0	0	-16.98781967	-17.53792381	4.730750084	1.0
47	2.258270025	0	0	-16.01975632	-16.21954918	6.252976894	1.0
48	2.258270025	0	0	-15.1391573	-13.63627529	5.468550682	1.0
49	2.258270025	0	0	-9.784673691	-12.84490681	3.639561176	1.0
50	2.258270025	0	0	-7.736161709	-11.40100479	-0.6351594925	1.0
51	2.258270025	0	0	-10.90604305	-9.688241959	-3.428076744	1.0
52	2.258270025	0	0	-10.69126701	-6.289786339	-1.547867775	1.0
53	2.258270025	0	0	-13.09156704	-4.007855892	-5.241282463	1.0
[RightShoulder]
46	-0.3646599948	1.825889945	-0.04271000251	-15.24225903	11.45463085	178.9599915	1.0
47	-0.3646599948	1.825889945	-0.04271000251	-18.10328865	11.7531147	175.5099487	1.0
48	-0.3646599948	1.825889945	-0.04271000251	-16.29787445	10.77205276	176.3585358	1.0
49	-0.3646599948	1.825889945	-0.04271000251	-13.48146725	9.498140335	177.9987793	1.0
50	-0.3646599948	1.825889945	-0.04271000251	-12.07217979	9.492818832	178.5868683	1.0
51	-0.3646599948	1.825889945	-0.04271000251	-11.14651489	9.847911835	179.7409058	1.0
52	-0.3646599948	1.825889945	-0.04271000251	-11.69630241	10.99726295	180.9259033	1.0
53	-0.3646599948	1.825889945	-0.04271000251	-11.84643745	11.77875233	180.39534	1.0
[RightArm]
46	-1.24003005	0	0	58.10853577	8.584056854	-106.7380905	1.0
47	-1.24003005	0	0	53.75030136	11.66796875	-105.6599808	1.0
48	-1.24003005	0	0	53.31139374	7.053242207	-104.3227081	1.0
49	-1.24003005	0	0	47.71335602	2.991446733	-103.2660522	1.0
50	-1.24003005	0	0	44.92734146	1.970242262	-100.633255	1.0
51	-1.24003005	0	0	50.25548172	4.576395035	-99.07539368	1.0
52	-1.24003005	0	0	54.01469421	4.307211876	-99.45899963	1.0
53	-1.24003005	0	0	48.05105972	-0.3816021979	-99.61684418	1.0
[RightForeArm]
46	-2.847419977	0	0	-88.57621765	33.44509506	36.15607071	1.0
47	-2.847419977	0	0	-87.32141113	37.99754333	40.50954437	1.0
48	-2.847419977	0	0	-75.4192276	45.52693176	56.50575638	1.0
49	-2.847419977	0	0	-51.62980652	57.24550629	91.15700531	1.0
50	-2.847419977	0	0	-12.95651436	47.91511536	138.3003387	1.0
51	-2.847419977	0	0	0.4651944041	23.15409088	162.3929443	1.0
52	-2.847419977	0	0	-2.280832052	4.650614738	177.5055542	1.0
53	-2.847419977	0	0	-2.439530134	-0.9128705859	182.5515137	1.0
[RightHand]
46	-2.258270025	0	0	-4.696092129	10.14732838	164.9347534	1.0
47	-2.258270025	0	0	-2.406978846	10.80357742	168.4612732	1.0
48	-2.258270025	0	0	-0.5171134472	11.80615044	170.6834869	1.0
49	-2.258270025	0	0	3.661434174	12.26233482	170.8230438	1.0
50	-2.258270025	0	0	5.488167763	11.39991093	172.25177	1.0
51	-2.258270025	0	0	3.418771744	8.622420311	170.1105347	1.0
52	-2.258270025	0	0	-2.311443329	4.770418167	176.5049896	1.0
53	-2.258270025	0	0	-2.529406548	-1.345448375	189.2386169	1.0
[LeftUpLeg]
46	0.9119900465	0	0	-50.27137375	1.441534042	106.6055145	1.0
47	0.9119900465	0	0	-67.76058197	11.86840439	96.66265106	1.0
48	0.9119900465	0	0	-67.62071228	7.19254446	99.22177887	1.0
49	0.9119900465	0	0	-62.52199554	6.770049572	102.3509369	1.0
50	0.9119900465	0	0	-57.5582428	6.225261688	98.93257141	1.0
51	0.9119900465	0	0	-50.69300079	6.807256699	96.97816467	1.0
52	0.9119900465	0	0	-41.2266922	3.764396191	98.0480957	1.0
53	0.9119900465	0	0	-31.71788216	0.5046129227	97.9123764	1.0
[LeftLeg]
46	0	-4.371409893	0	62.43817902	4.8573246	66.39676666	1.0
47	0	-4.371409893	0	84.32704926	-2.075106859	64.46206665	1.0
48	0	-4.371409893	0	81.35115051	3.97730732	68.5433197	1.0
49	0	-4.371409893	0	77.08229065	6.284101486	66.77563477	1.0
50	0	-4.371409893	0	72.44699097	2.129587173	71.52527618	1.0
51	0	-4.371409893	0	63.02084351	-1.137181282	73.56188965	1.0
52	0	-4.371409893	0	47.85292053	1.412506223	78.91435242	1.0
53	0	-4.371409893	0	32.53720474	3.144971609	82.76078033	1.0
[LeftFoot]
46	0	-3.918009996	0	-78.39990997	107.9768219	-7.311441422	1.0
47	0	-3.918009996	0	-57.67784119	104.8231812	5.647849083	1.0
48	0	-3.918009996	0	-74.60317993	102.906517	-6.959180355	1.0
49	0	-3.918009996	0	-72.04101563	103.9437027	-5.473022461	1.0
50	0	-3.918009996	0	-78.51872253	101.7333603	-19.73402405	1.0
51	0	-3.918009996	0	-85.02310944	101.9629974	-29.2827301	1.0
52	0	-3.918009996	0	-97.19715881	100.4045258	-45.26355743	1.0
53	0	-3.918009996	0	-102.1039505	101.7303848	-54.022995	1.0
[LeftToeBase]
46	0	-0.5927900076	1.367989898	0	0	0	1.0
47	0	-0.5927900076	1.367989898	0	0	0	1.0
48	0	-0.5927900076	1.367989898	0	0	0	1.0
49	0	-0.5927900076	1.367989898	0	0	0	1.0
50	0	-0.5927900076	1.367989898	0	0	0	1.0
51	0	-0.5927900076	1.367989898	0	0	0	1.0
52	0	-0.5927900076	1.367989898	0	0	0	1.0
53	0	-0.5927900076	1.367989898	0	0	0	1.0
[RightUpLeg]
46	-0.9119900465	0	0	-50.28260803	-13.10265636	106.0152283	1.0
47	-0.9119900465	0	0	-64.70807648	-7.554397583	110.0649033	1.0
48	-0.9119900465	0	0	-68.38111877	-9.65418911	107.3269653	1.0
49	-0.9119900465	0	0	-64.60216522	-8.825472832	103.3789291	1.0
50	-0.9119900465	0	0	-59.19769287	-13.12513161	104.4745331	1.0
51	-0.9119900465	0	0	-51.94599533	-16.29003716	104.7626495	1.0
52	-0.9119900465	0	0	-41.44223404	-16.85990715	100.6256256	1.0
53	-0.9119900465	0	0	-31.04067993	-14.66552067	95.81027985	1.0
[RightLeg]
46	0	-4.371409893	0	61.13629532	15.69591522	81.79425049	1.0
47	0	-4.371409893	0	76.39056396	18.4449749	81.95700073	1.0
48	0	-4.371409893	0	79.76600647	17.5407486	78.8653183	1.0
49	0	-4.371409893	0	79.98814392	15.20723438	84.71730042	1.0
50	0	-4.371409893	0	70.32681274	15.60715294	77.18728638	1.0
51	0	-4.371409893	0	58.79434204	16.0823288	79.75065613	1.0
52	0	-4.371409893	0	43.81900406	8.84104538	79.32967377	1.0
53	0	-4.371409893	0	29.62685776	2.760874987	81.54486084	1.0
[RightFoot]
46	0	-3.918009996	0	25.13592148	53.40333557	90.79013824	1.0
47	0	-3.918009996	0	29.54068756	51.48434448	91.72557831	1.0
48	0	-3.918009996	0	39.33458328	52.56998062	102.1137848	1.0
49	0	-3.918009996	0	37.2588501	51.68260193	95.62480164	1.0
50	0	-3.918009996	0	49.63654327	54.89990234	104.9780884	1.0
51	0	-3.918009996	0	40.67404938	56.22362137	95.67028046	1.0
52	0	-3.918009996	0	41.1026001	58.03997803	93.83604431	1.0
53	0	-3.918009996	0	42.30489349	58.91598892	89.86840057	1.0
[RightToeBase]
46	0	-0.5927900076	1.367989898	0	0	0	1.0
47	0	-0.5927900076	1.367989898	0	0	0	1.0
48	0	-0.5927900076	1.367989898	0	0	0	1.0
49	0	-0.5927900076	1.367989898	0	0	0	1.0
50	0	-0.5927900076	1.367989898	0	0	0	1.0
51	0	-0.5927900076	1.367989898	0	0	0	1.0
52	0	-0.5927900076	1.367989898	0	0	0	1.0
53	0	-0.5927900076	1.367989898	0	0	0	1.0
[EndOfFile]
